TITLE "RYM_2026-03"
FILE "RYM_2026-03.wav" WAVE
  TRACK 01 AUDIO
    TITLE "HAYLA - Fall Again"
    INDEX 01 00:27:00
  TRACK 02 AUDIO
    TITLE "Sirvo - Dopamine"
    INDEX 01 01:40:09
  TRACK 03 AUDIO
    TITLE "Diplo & Jem Cooke & Local Singles - LIft Me Up"
    INDEX 01 02:53:15
  TRACK 04 AUDIO
    TITLE "Chambord - Vogue"
    INDEX 01 04:03:68
  TRACK 05 AUDIO
    TITLE "Marc Mosca - Sex Pills"
    INDEX 01 05:33:15
  TRACK 06 AUDIO
    TITLE "Öwnboss & FAST BOY - Left & Right"
    INDEX 01 06:17:64
  TRACK 07 AUDIO
    TITLE "DALEXO - Highs & Lows"
    INDEX 01 07:39:54
  TRACK 08 AUDIO
    TITLE "Ernyst & Jonathan Baily - You Don't Love Me"
    INDEX 01 08:54:10
  TRACK 09 AUDIO
    TITLE "Mauro Venti & David LeSal - Chain Reaction"
    INDEX 01 09:53:50
  TRACK 10 AUDIO
    TITLE "SICK INDIVIDUALS - Move It Down"
    INDEX 01 10:53:15
  TRACK 11 AUDIO
    TITLE "Chaney - Love Again"
    INDEX 01 11:52:56
  TRACK 12 AUDIO
    TITLE "Alesso & Sacha - Destiny (HILLS Remix)"
    INDEX 01 12:37:29
  TRACK 13 AUDIO
    TITLE "Melsen - What I Feel"
    INDEX 01 13:44:28
  TRACK 14 AUDIO
    TITLE "Lyle M - Love Is Enough"
    INDEX 01 14:28:25
  TRACK 15 AUDIO
    TITLE "Kinky Sound & KOCHETOV - Keep On"
    INDEX 01 15:27:65
  TRACK 16 AUDIO
    TITLE "GhostMasters - House Music Is Truth"
    INDEX 01 16:26:71
  TRACK 17 AUDIO
    TITLE "Mau P - neck"
    INDEX 01 17:37:07
  TRACK 18 AUDIO
    TITLE "Dylan McPhee - Come In Closer"
    INDEX 01 18:17:54
  TRACK 19 AUDIO
    TITLE "HILLS & WELKER - Swagger"
    INDEX 01 19:16:59
  TRACK 20 AUDIO
    TITLE "Adri Block - Thinking Of You"
    INDEX 01 19:45:31
  TRACK 21 AUDIO
    TITLE "Barone & LVGA - No One Else"
    INDEX 01 20:59:37
  TRACK 22 AUDIO
    TITLE "Dombresky - IRLY"
    INDEX 01 21:28:61
  TRACK 23 AUDIO
    TITLE "Icarus & Baobei - Dopamine"
    INDEX 01 22:12:59
  TRACK 24 AUDIO
    TITLE "Ghostbusterz - Too Many Broken Hearts"
    INDEX 01 23:26:05
  TRACK 25 AUDIO
    TITLE "Boy At The Beach & Johannes Jungleson - Breathe Out"
    INDEX 01 24:54:00
  TRACK 26 AUDIO
    TITLE "GYSNOIZE - This Could Be The Last Night"
    INDEX 01 25:37:73
  TRACK 27 AUDIO
    TITLE "Paul VHR - Enormorado"
    INDEX 01 26:54:69
  TRACK 28 AUDIO
    TITLE "Lucas & Steve - Retro"
    INDEX 01 28:08:15
  TRACK 29 AUDIO
    TITLE "Becky Hill - Last Time (Biscits Remix)"
    INDEX 01 28:51:19
  TRACK 30 AUDIO
    TITLE "Carma & James Carter - 2 Days"
    INDEX 01 29:36:11
  TRACK 31 AUDIO
    TITLE "Kamino & Kyra Mastro - Tension"
    INDEX 01 30:20:08
  TRACK 32 AUDIO
    TITLE "ACRAZE & Joey Valence & Brae - Heard It Like This (Live Remix vs CID & Taylr Renee - Fancy $hit)"
    INDEX 01 31:04:06
  TRACK 33 AUDIO
    TITLE "SIDEPIECE & Aluna - Misbehave"
    INDEX 01 32:16:69
  TRACK 34 AUDIO
    TITLE "Final Request - What's Up"
    INDEX 01 33:15:07
  TRACK 35 AUDIO
    TITLE "Block & Crown x Fiscaro x Manolo - Mami"
    INDEX 01 34:35:07
  TRACK 36 AUDIO
    TITLE "BYOR - Set Me Free"
    INDEX 01 35:34:14
  TRACK 37 AUDIO
    TITLE "GYSNOIZE - Check It Out"
    INDEX 01 36:45:04
  TRACK 38 AUDIO
    TITLE "GYSNOIZE - There Is No Place To Hide"
    INDEX 01 37:36:36
  TRACK 39 AUDIO
    TITLE "Disco Lines & Tinashe - No Broke Boys (dansyn Remix)"
    INDEX 01 39:13:69
  TRACK 40 AUDIO
    TITLE "Nicky Romero & Monocule - Lost In Light"
    INDEX 01 39:28:27
  TRACK 41 AUDIO
    TITLE "GYSNOIZE - Is It Silence (Deep House Remix)"
    INDEX 01 40:26:03
  TRACK 42 AUDIO
    TITLE "ZERB & Wiz Khalifa - Location"
    INDEX 01 40:54:52
  TRACK 43 AUDIO
    TITLE "Nathan Dawe & Abi Flynn - Hold On"
    INDEX 01 41:22:34
  TRACK 44 AUDIO
    TITLE "Chique - Face"
    INDEX 01 42:20:50
  TRACK 45 AUDIO
    TITLE "Kamino & Kyra Mastro - Vertigo"
    INDEX 01 42:49:24
  TRACK 46 AUDIO
    TITLE "Tujamo & Gamurel Sori - No Excuse"
    INDEX 01 43:32:23
  TRACK 47 AUDIO
    TITLE "Yves V & Diego Miranda - Been A Long Time"
    INDEX 01 43:46:47
  TRACK 48 AUDIO
    TITLE "April Girl - I Drive"
    INDEX 01 44:14:30
  TRACK 49 AUDIO
    TITLE "Voost - Memories"
    INDEX 01 45:19:58
  TRACK 50 AUDIO
    TITLE "Lyle M - Paralyzed"
    INDEX 01 45:41:12
  TRACK 51 AUDIO
    TITLE "Freemasons - True Love Survivor (2015 Future Classic Club Mix)"
    INDEX 01 46:38:03
  TRACK 52 AUDIO
    TITLE "GYSNOIZE - Electric Heart"
    INDEX 01 47:20:53
  TRACK 53 AUDIO
    TITLE "Dansyn & NO STATIC - Pressure"
    INDEX 01 48:03:28
  TRACK 54 AUDIO
    TITLE "Alkemy & Luis Torres & Mike Rezna - Jumpin"
    INDEX 01 48:45:74
  TRACK 55 AUDIO
    TITLE "Kaskade & CID & Anabel Englund - Vision Blurred"
    INDEX 01 49:28:26
  TRACK 56 AUDIO
    TITLE "AVALAN ROKSTON - Wide Awake"
    INDEX 01 50:10:52
  TRACK 57 AUDIO
    TITLE "Thomas Gold & Barmuda - Gimme Your Love"
    INDEX 01 51:06:21
  TRACK 58 AUDIO
    TITLE "SIDEPIECE & Alok & Victor Ruiz - Mind Illuminate"
    INDEX 01 51:35:22
  TRACK 59 AUDIO
    TITLE "BLOND:ISH & Zeeba - Different Way (ARTBAT Remix)"
    INDEX 01 52:17:26
  TRACK 60 AUDIO
    TITLE "Kelland - HURTS"
    INDEX 01 52:45:28
  TRACK 61 AUDIO
    TITLE "Local Singles - Catch & Kiss"
    INDEX 01 53:27:31
  TRACK 62 AUDIO
    TITLE "220 KID - Now The Love Is Gone"
    INDEX 01 53:55:33
  TRACK 63 AUDIO
    TITLE "Deophonik - The Answer (Branco Simonetti Remix)"
    INDEX 01 55:19:40
  TRACK 64 AUDIO
    TITLE "Declain & Elle Vee - Favorite Person"
    INDEX 01 55:47:42
  TRACK 65 AUDIO
    TITLE "GYSNOIZE - Control"
    INDEX 01 56:43:46
  TRACK 66 AUDIO
    TITLE "John Summit & The Chainsmokers & Ilsey - ALL THE TIME"
    INDEX 01 58:07:45
